<svg xmlns="http://www.w3.org/2000/svg" xmlns:xlink="http://www.w3.org/1999/xlink" width="0" height="0" style="display:none;"><symbol viewBox="183.499 64.178 273.065 372.8105" id="icon-scanner-solid">
  <path d="M 313.34 147.345 L 289.28 147.345 C 286.519 147.345 284.28 149.584 284.28 152.345 L 284.28 176.406 C 284.28 179.168 286.519 181.406 289.28 181.406 L 313.34 181.406 C 316.102 181.406 318.34 179.168 318.34 176.406 L 318.34 152.345 C 318.34 149.584 316.102 147.345 313.34 147.345 Z M 306.84 207.038 L 294.28 207.038 L 294.28 194.978 C 294.28 191.129 290.114 188.724 286.78 190.648 C 285.233 191.542 284.28 193.192 284.28 194.978 L 284.28 212.039 C 284.28 214.801 286.519 217.039 289.28 217.039 L 306.84 217.039 C 310.69 217.039 313.096 212.872 311.171 209.539 C 310.278 207.992 308.627 207.038 306.84 207.038 Z M 350.779 147.345 L 326.719 147.345 C 323.958 147.345 321.719 149.584 321.719 152.345 L 321.719 176.406 C 321.719 179.168 323.958 181.406 326.719 181.406 L 350.779 181.406 C 353.541 181.406 355.779 179.168 355.779 176.406 L 355.779 152.345 C 355.779 149.584 353.541 147.345 350.779 147.345 Z M 345.88 190.114 L 331.621 190.114 C 328.86 190.114 326.621 192.353 326.621 195.114 L 326.621 209.371 C 326.621 212.133 328.86 214.371 331.621 214.371 L 345.88 214.371 C 348.642 214.371 350.88 212.133 350.88 209.371 L 350.88 195.114 C 350.88 192.353 348.642 190.114 345.88 190.114 Z M 249.475 329.498 L 249.475 348.936 L 249.295 348.936 L 249.295 349.883 L 322.678 349.883 C 322.825 349.85 322.973 349.821 323.121 349.796 C 324.905 349.49 327.122 349.54 329.141 349.883 L 338.204 349.883 L 338.204 349.903 L 340.637 349.903 C 340.2 353.865 340.208 357.63 340.551 361.177 C 341.098 362.854 341.501 364.37 341.677 365.159 C 341.87 366.025 341.484 365.797 341.677 366.756 C 342.147 369.101 345.882 377.778 346.775 381.87 C 347.68 383.694 348.689 385.476 349.801 387.208 L 349.619 387.208 C 349.724 387.274 349.828 387.341 349.931 387.41 C 349.888 387.343 349.844 387.275 349.801 387.208 L 349.965 387.208 C 350.055 387.345 350.145 387.481 350.235 387.615 C 351.662 388.601 352.963 389.796 353.915 390.993 C 354.066 391.183 354.212 391.38 354.351 391.582 C 357.54 393.255 361.527 393.145 364.693 390.952 C 369.235 387.81 370.37 381.581 367.228 377.039 C 364.978 373.787 363.265 370.484 362.089 367.124 L 361.984 367.124 C 361.978 367.103 361.971 367.081 361.964 367.06 L 362.067 367.06 C 362.074 367.081 362.082 367.103 362.089 367.124 L 363.003 367.124 C 362.995 367.103 362.988 367.081 362.98 367.06 L 362.067 367.06 C 357.048 352.634 361.93 337.142 376.809 320.027 C 379.876 317.375 389.116 308.295 388.026 295.994 C 387.198 286.651 380.917 278.8 369.357 272.657 C 369.014 272.475 368.659 272.312 368.296 272.171 C 367.83 271.989 356.893 267.592 358.555 256.465 C 359.562 249.728 373.323 248.192 382.321 248.799 C 384.501 248.947 386.622 249.136 388.684 249.366 C 389.752 249.752 390.905 249.962 392.107 249.962 C 392.413 249.962 392.716 249.948 393.015 249.922 C 393.116 249.936 393.217 249.951 393.317 249.966 L 393.317 250.193 C 393.545 250.205 393.775 250.221 394.007 250.238 C 394.049 250.189 394.093 250.139 394.136 250.09 C 393.864 250.048 393.591 250.007 393.317 249.966 L 393.317 249.89 C 398.312 249.292 402.185 245.04 402.185 239.884 C 402.185 234.727 398.312 230.476 393.317 229.878 L 393.317 229.589 C 393.232 229.565 393.148 229.541 393.064 229.515 L 393.064 229.757 C 390.032 229.376 386.914 229.063 383.675 228.843 C 358.516 227.149 341.305 236.591 338.777 253.509 C 335.653 274.415 351.204 286.693 360.402 290.549 C 365.843 293.517 367.953 296.196 368.103 297.737 C 368.313 299.887 365.55 303.421 363.626 304.988 C 363.144 305.366 362.697 305.788 362.291 306.249 C 355.631 313.814 350.781 321.058 347.354 327.928 L 249.744 327.928 L 249.744 329.498 Z M 246.857 384.497 C 236.826 379.907 229.75 369.951 229.323 358.32 L 220.999 358.32 C 204.457 358.32 190.999 344.862 190.999 328.32 L 190.999 326.987 C 190.995 321.346 192.591 315.82 195.602 311.049 C 188.262 305.574 183.499 296.827 183.499 286.987 L 183.499 285.654 C 183.499 275.814 188.262 267.067 195.602 261.593 C 192.59 256.823 190.994 251.296 190.999 245.654 L 190.999 244.321 C 190.999 227.779 204.457 214.321 220.999 214.321 L 229.295 214.321 L 229.295 94.178 C 229.295 77.636 242.753 64.178 259.295 64.178 L 383.064 64.178 C 399.606 64.178 413.064 77.636 413.064 94.178 L 413.064 233.845 C 427.404 238.161 438.366 245.02 445.807 254.367 C 455.124 266.071 458.413 280.991 455.579 298.712 C 455.171 301.266 454.765 303.891 454.35 306.575 C 448.737 342.851 441.16 391.805 404.253 427.467 C 403.34 429.201 401.996 431.068 400.454 432.464 C 398.606 434.138 396.295 435.7 393.671 436.454 C 390.784 437.284 387.058 436.916 383.695 436.853 C 380.275 436.789 377.933 437.02 373.32 436.055 C 366.141 434.554 352.985 428.309 343.391 426.478 C 334.554 424.791 326.477 424.698 317.853 424.882 C 309.057 425.069 298.313 425.782 291.117 427.675 C 285.365 429.188 281.062 433.044 277.15 434.06 C 274.199 434.826 272.085 435.063 269.569 434.459 C 269.353 434.407 269.133 434.347 268.91 434.28 C 266.064 434.018 263.452 432.545 261.755 430.217 C 261.628 430.101 261.505 429.986 261.388 429.87 C 259.787 428.292 258.717 426.239 258.036 424.236 C 250.203 410.01 247.674 393.716 246.857 384.497 Z M 252.915 122.614 L 391.568 122.614 C 392.066 122.569 392.565 122.552 393.064 122.561 L 393.064 102.333 L 249.295 102.333 L 249.295 122.566 C 250.483 122.441 251.717 122.46 252.915 122.614 Z" style="stroke: rgb(0, 0, 0);" transform="matrix(0.9999999999999999, 0, 0, 0.9999999999999999, 0, 0)"></path>
</symbol><symbol viewBox="0 0 371.643 371.643" id="icon-scanner">
  <path d="M105.084 38.271h163.768v20H105.084z"></path>
  <path d="M311.596 190.189c-7.441-9.347-18.403-16.206-32.743-20.522V30c0-16.542-13.458-30-30-30H125.084c-16.542 0-30 13.458-30 30v120.143h-8.296c-16.542 0-30 13.458-30 30v1.333a29.804 29.804 0 0 0 4.603 15.939c-7.34 5.474-12.103 14.221-12.103 24.061v1.333c0 9.84 4.763 18.587 12.103 24.062a29.81 29.81 0 0 0-4.603 15.938v1.333c0 16.542 13.458 30 30 30h8.324c.427 11.631 7.503 21.587 17.534 26.177.931 10.503 4.084 30.187 14.768 45.537a9.988 9.988 0 0 0 8.216 4.288 9.958 9.958 0 0 0 5.704-1.793c4.533-3.155 5.65-9.388 2.495-13.921-6.798-9.767-9.602-22.608-10.76-31.4h82.685c.272.414.545.818.815 1.21 3.142 4.541 9.372 5.679 13.913 2.534 4.542-3.142 5.677-9.371 2.535-13.913-11.919-17.229-8.787-35.884 9.581-57.012 3.067-2.652 12.307-11.732 11.217-24.033-.828-9.343-7.109-17.194-18.669-23.337a9.857 9.857 0 0 0-1.061-.486c-.466-.182-11.403-4.579-9.741-15.706 1.007-6.737 14.768-8.273 23.766-7.666 23.156 1.569 39.698 7.803 47.836 18.026 5.752 7.225 7.607 16.623 5.673 28.733-.413 2.585-.824 5.241-1.245 7.959-5.756 37.194-12.919 83.483-49.87 114.661-4.221 3.561-4.756 9.87-1.194 14.092a9.98 9.98 0 0 0 7.648 3.551 9.955 9.955 0 0 0 6.444-2.358c42.672-36.005 50.802-88.533 56.737-126.888.415-2.684.821-5.309 1.229-7.863 2.834-17.721-.455-32.641-9.772-44.345zm-232.308 42.62c-5.514 0-10-4.486-10-10v-1.333c0-5.514 4.486-10 10-10h15v21.333h-15zm-2.5-52.666c0-5.514 4.486-10 10-10h7.5v21.333h-7.5c-5.514 0-10-4.486-10-10v-1.333zm17.5 93.999h-7.5c-5.514 0-10-4.486-10-10v-1.333c0-5.514 4.486-10 10-10h7.5v21.333zm30.796 28.887c-5.514 0-10-4.486-10-10v-8.271h91.457c-.851 6.668-.437 12.787.731 18.271h-82.188zm79.482-113.698c-3.124 20.906 12.427 33.184 21.625 37.04 5.441 2.968 7.551 5.647 7.701 7.188.21 2.15-2.553 5.684-4.477 7.251-.482.378-.929.8-1.335 1.261-6.987 7.936-11.982 15.52-15.432 22.688h-97.564V30c0-5.514 4.486-10 10-10h123.769c5.514 0 10 4.486 10 10v135.579c-3.032-.381-6.15-.694-9.389-.914-25.159-1.694-42.37 7.748-44.898 24.666z"></path>
  <path d="M179.129 83.167h-24.06a5 5 0 0 0-5 5v24.061a5 5 0 0 0 5 5h24.06a5 5 0 0 0 5-5V88.167a5 5 0 0 0-5-5zM172.629 142.86h-12.56V130.8a5 5 0 1 0-10 0v17.061a5 5 0 0 0 5 5h17.56a5 5 0 1 0 0-10.001zM216.568 83.167h-24.06a5 5 0 0 0-5 5v24.061a5 5 0 0 0 5 5h24.06a5 5 0 0 0 5-5V88.167a5 5 0 0 0-5-5zm-5 24.061h-14.06V93.167h14.06v14.061zM211.669 125.936H197.41a5 5 0 0 0-5 5v14.257a5 5 0 0 0 5 5h14.259a5 5 0 0 0 5-5v-14.257a5 5 0 0 0-5-5z"></path>
</symbol><symbol viewBox="29.354 95.701 74.219 83.045" id="icon-tombstone-solid">
  <path d="M 96.589 109.864 C 96.589 110.516 96.496 111.158 96.316 111.787 L 96.316 163.141 L 36.668 163.141 L 36.668 110.419 L 36.892 110.419 C 36.877 110.235 36.869 110.05 36.869 109.864 C 36.869 102.042 50.238 95.701 66.729 95.701 C 83.22 95.701 96.589 102.042 96.589 109.864 Z M 69.086 109.467 C 69.118 109.304 69.135 109.135 69.135 108.962 C 69.135 107.52 67.967 106.352 66.525 106.352 C 65.084 106.352 63.916 107.52 63.916 108.962 C 63.916 109.144 63.935 109.322 63.971 109.494 L 63.971 121.025 L 54.115 121.025 C 54.028 121.017 53.938 121.013 53.849 121.013 C 52.237 121.013 50.93 122.32 50.93 123.932 C 50.93 125.507 52.179 126.792 53.74 126.849 L 53.74 126.852 L 63.557 126.852 L 63.557 151.535 C 63.517 151.728 63.497 151.927 63.497 152.131 C 63.497 153.771 64.827 155.101 66.466 155.101 C 68.106 155.101 69.436 153.771 69.436 152.131 C 69.436 151.982 69.425 151.836 69.404 151.693 L 69.404 126.852 L 79.316 126.852 L 79.316 126.756 C 79.384 126.761 79.454 126.764 79.524 126.764 C 81.136 126.764 82.443 125.457 82.443 123.845 C 82.443 122.233 81.136 120.926 79.524 120.926 C 79.261 120.926 79.007 120.961 78.765 121.025 L 69.086 121.025 Z" style="stroke: rgb(0, 0, 0);" transform="matrix(0.9999999999999999, 0, 0, 0.9999999999999999, 0, 0)"></path>
  <path d="M 34.291 178.626 C 31.564 178.626 29.354 176.449 29.354 173.763 C 29.354 171.077 31.564 168.9 34.291 168.9 C 34.738 168.9 35.171 168.959 35.583 169.068 L 35.583 169.016 L 97.299 169.016 L 97.299 169.2 C 97.724 169.083 98.173 169.02 98.636 169.02 C 101.363 169.02 103.573 171.197 103.573 173.883 C 103.573 176.569 101.363 178.746 98.636 178.746 C 98.173 178.746 97.724 178.683 97.299 178.566 L 97.299 178.713 L 35.583 178.713 L 35.583 178.458 C 35.171 178.567 34.738 178.626 34.291 178.626 Z" style="stroke: rgb(0, 0, 0); stroke-width: 0px;" transform="matrix(0.9999999999999999, 0, 0, 0.9999999999999999, 0, 0)"></path>
</symbol><symbol viewBox="33.665 237.876 74.219 82.516" id="icon-tombstone">
  <path d="M 38.602 320.272 C 35.875 320.272 33.665 318.095 33.665 315.409 C 33.665 312.723 35.875 310.546 38.602 310.546 C 39.049 310.546 39.482 310.605 39.894 310.714 L 39.894 310.662 L 101.61 310.662 L 101.61 310.846 C 102.035 310.729 102.484 310.666 102.947 310.666 C 105.674 310.666 107.884 312.843 107.884 315.529 C 107.884 318.215 105.674 320.392 102.947 320.392 C 102.484 320.392 102.035 320.329 101.61 320.212 L 101.61 320.359 L 39.894 320.359 L 39.894 320.104 C 39.482 320.213 39.049 320.272 38.602 320.272 Z M 73.002 263.886 L 73.036 263.886 L 73.036 263.2 L 82.603 263.2 C 82.845 263.136 83.099 263.101 83.362 263.101 C 84.974 263.101 86.281 264.408 86.281 266.02 C 86.281 266.024 86.281 266.029 86.281 266.033 C 86.332 266.249 86.359 266.474 86.359 266.706 C 86.359 268.318 85.052 269.625 83.44 269.625 C 83.37 269.625 83.3 269.622 83.232 269.617 L 83.232 269.713 L 73.32 269.713 L 73.32 290.968 C 73.33 291.06 73.336 291.154 73.336 291.25 C 73.336 291.347 73.331 291.442 73.32 291.536 L 73.32 294.554 C 73.341 294.697 73.352 294.843 73.352 294.992 C 73.352 296.632 72.022 297.962 70.382 297.962 C 68.743 297.962 67.413 296.632 67.413 294.992 C 67.413 294.99 67.413 294.987 67.413 294.985 C 67.362 294.767 67.335 294.54 67.335 294.306 C 67.335 294.102 67.355 293.903 67.395 293.71 L 67.395 269.713 L 57.656 269.713 L 57.656 269.71 C 56.095 269.653 54.846 268.368 54.846 266.793 C 54.846 266.789 54.846 266.784 54.846 266.78 C 54.795 266.564 54.768 266.339 54.768 266.107 C 54.768 264.495 56.075 263.188 57.687 263.188 C 57.776 263.188 57.866 263.192 57.953 263.2 L 67.809 263.2 L 67.809 251.669 C 67.773 251.497 67.754 251.319 67.754 251.137 C 67.754 249.695 68.922 248.527 70.363 248.527 C 71.805 248.527 72.973 249.695 72.973 251.137 C 72.973 251.153 72.973 251.169 72.973 251.185 C 73.024 251.389 73.051 251.603 73.051 251.823 C 73.051 251.996 73.034 252.165 73.002 252.328 L 73.002 253.728 C 73.051 253.912 73.078 254.107 73.078 254.307 C 73.078 254.455 73.064 254.6 73.036 254.74 L 73.036 263.2 L 73.002 263.2 Z M 100.427 252.039 C 100.427 252.691 100.334 253.333 100.154 253.962 L 100.154 305.316 L 40.506 305.316 L 40.506 252.594 L 40.73 252.594 C 40.715 252.41 40.707 252.225 40.707 252.039 C 40.707 244.217 54.076 237.876 70.567 237.876 C 87.058 237.876 100.427 244.217 100.427 252.039 Z M 71.019 242.959 C 56.907 242.959 45.466 248.385 45.466 255.079 C 45.466 255.238 45.473 255.397 45.486 255.554 L 45.294 255.554 L 45.294 300.672 L 96.339 300.672 L 96.339 256.725 C 96.493 256.187 96.572 255.637 96.572 255.079 C 96.572 248.385 85.132 242.959 71.019 242.959 Z" style="stroke: rgb(0, 0, 0); stroke-width: 0px;"></path>
</symbol></svg>