<svg viewBox="183.499 64.178 273.065 372.8105" xmlns="http://www.w3.org/2000/svg">
  <path d="M 313.34 147.345 L 289.28 147.345 C 286.519 147.345 284.28 149.584 284.28 152.345 L 284.28 176.406 C 284.28 179.168 286.519 181.406 289.28 181.406 L 313.34 181.406 C 316.102 181.406 318.34 179.168 318.34 176.406 L 318.34 152.345 C 318.34 149.584 316.102 147.345 313.34 147.345 Z M 306.84 207.038 L 294.28 207.038 L 294.28 194.978 C 294.28 191.129 290.114 188.724 286.78 190.648 C 285.233 191.542 284.28 193.192 284.28 194.978 L 284.28 212.039 C 284.28 214.801 286.519 217.039 289.28 217.039 L 306.84 217.039 C 310.69 217.039 313.096 212.872 311.171 209.539 C 310.278 207.992 308.627 207.038 306.84 207.038 Z M 350.779 147.345 L 326.719 147.345 C 323.958 147.345 321.719 149.584 321.719 152.345 L 321.719 176.406 C 321.719 179.168 323.958 181.406 326.719 181.406 L 350.779 181.406 C 353.541 181.406 355.779 179.168 355.779 176.406 L 355.779 152.345 C 355.779 149.584 353.541 147.345 350.779 147.345 Z M 345.88 190.114 L 331.621 190.114 C 328.86 190.114 326.621 192.353 326.621 195.114 L 326.621 209.371 C 326.621 212.133 328.86 214.371 331.621 214.371 L 345.88 214.371 C 348.642 214.371 350.88 212.133 350.88 209.371 L 350.88 195.114 C 350.88 192.353 348.642 190.114 345.88 190.114 Z M 249.475 329.498 L 249.475 348.936 L 249.295 348.936 L 249.295 349.883 L 322.678 349.883 C 322.825 349.85 322.973 349.821 323.121 349.796 C 324.905 349.49 327.122 349.54 329.141 349.883 L 338.204 349.883 L 338.204 349.903 L 340.637 349.903 C 340.2 353.865 340.208 357.63 340.551 361.177 C 341.098 362.854 341.501 364.37 341.677 365.159 C 341.87 366.025 341.484 365.797 341.677 366.756 C 342.147 369.101 345.882 377.778 346.775 381.87 C 347.68 383.694 348.689 385.476 349.801 387.208 L 349.619 387.208 C 349.724 387.274 349.828 387.341 349.931 387.41 C 349.888 387.343 349.844 387.275 349.801 387.208 L 349.965 387.208 C 350.055 387.345 350.145 387.481 350.235 387.615 C 351.662 388.601 352.963 389.796 353.915 390.993 C 354.066 391.183 354.212 391.38 354.351 391.582 C 357.54 393.255 361.527 393.145 364.693 390.952 C 369.235 387.81 370.37 381.581 367.228 377.039 C 364.978 373.787 363.265 370.484 362.089 367.124 L 361.984 367.124 C 361.978 367.103 361.971 367.081 361.964 367.06 L 362.067 367.06 C 362.074 367.081 362.082 367.103 362.089 367.124 L 363.003 367.124 C 362.995 367.103 362.988 367.081 362.98 367.06 L 362.067 367.06 C 357.048 352.634 361.93 337.142 376.809 320.027 C 379.876 317.375 389.116 308.295 388.026 295.994 C 387.198 286.651 380.917 278.8 369.357 272.657 C 369.014 272.475 368.659 272.312 368.296 272.171 C 367.83 271.989 356.893 267.592 358.555 256.465 C 359.562 249.728 373.323 248.192 382.321 248.799 C 384.501 248.947 386.622 249.136 388.684 249.366 C 389.752 249.752 390.905 249.962 392.107 249.962 C 392.413 249.962 392.716 249.948 393.015 249.922 C 393.116 249.936 393.217 249.951 393.317 249.966 L 393.317 250.193 C 393.545 250.205 393.775 250.221 394.007 250.238 C 394.049 250.189 394.093 250.139 394.136 250.09 C 393.864 250.048 393.591 250.007 393.317 249.966 L 393.317 249.89 C 398.312 249.292 402.185 245.04 402.185 239.884 C 402.185 234.727 398.312 230.476 393.317 229.878 L 393.317 229.589 C 393.232 229.565 393.148 229.541 393.064 229.515 L 393.064 229.757 C 390.032 229.376 386.914 229.063 383.675 228.843 C 358.516 227.149 341.305 236.591 338.777 253.509 C 335.653 274.415 351.204 286.693 360.402 290.549 C 365.843 293.517 367.953 296.196 368.103 297.737 C 368.313 299.887 365.55 303.421 363.626 304.988 C 363.144 305.366 362.697 305.788 362.291 306.249 C 355.631 313.814 350.781 321.058 347.354 327.928 L 249.744 327.928 L 249.744 329.498 Z M 246.857 384.497 C 236.826 379.907 229.75 369.951 229.323 358.32 L 220.999 358.32 C 204.457 358.32 190.999 344.862 190.999 328.32 L 190.999 326.987 C 190.995 321.346 192.591 315.82 195.602 311.049 C 188.262 305.574 183.499 296.827 183.499 286.987 L 183.499 285.654 C 183.499 275.814 188.262 267.067 195.602 261.593 C 192.59 256.823 190.994 251.296 190.999 245.654 L 190.999 244.321 C 190.999 227.779 204.457 214.321 220.999 214.321 L 229.295 214.321 L 229.295 94.178 C 229.295 77.636 242.753 64.178 259.295 64.178 L 383.064 64.178 C 399.606 64.178 413.064 77.636 413.064 94.178 L 413.064 233.845 C 427.404 238.161 438.366 245.02 445.807 254.367 C 455.124 266.071 458.413 280.991 455.579 298.712 C 455.171 301.266 454.765 303.891 454.35 306.575 C 448.737 342.851 441.16 391.805 404.253 427.467 C 403.34 429.201 401.996 431.068 400.454 432.464 C 398.606 434.138 396.295 435.7 393.671 436.454 C 390.784 437.284 387.058 436.916 383.695 436.853 C 380.275 436.789 377.933 437.02 373.32 436.055 C 366.141 434.554 352.985 428.309 343.391 426.478 C 334.554 424.791 326.477 424.698 317.853 424.882 C 309.057 425.069 298.313 425.782 291.117 427.675 C 285.365 429.188 281.062 433.044 277.15 434.06 C 274.199 434.826 272.085 435.063 269.569 434.459 C 269.353 434.407 269.133 434.347 268.91 434.28 C 266.064 434.018 263.452 432.545 261.755 430.217 C 261.628 430.101 261.505 429.986 261.388 429.87 C 259.787 428.292 258.717 426.239 258.036 424.236 C 250.203 410.01 247.674 393.716 246.857 384.497 Z M 252.915 122.614 L 391.568 122.614 C 392.066 122.569 392.565 122.552 393.064 122.561 L 393.064 102.333 L 249.295 102.333 L 249.295 122.566 C 250.483 122.441 251.717 122.46 252.915 122.614 Z" style="stroke: rgb(0, 0, 0);" transform="matrix(0.9999999999999999, 0, 0, 0.9999999999999999, 0, 0)"/>
</svg>