<svg viewBox="29.354 95.701 74.219 83.045" xmlns="http://www.w3.org/2000/svg" style="enable-background:new 29.354 95.701 74.219 83.045" xml:space="preserve">
  <path d="M 96.589 109.864 C 96.589 110.516 96.496 111.158 96.316 111.787 L 96.316 163.141 L 36.668 163.141 L 36.668 110.419 L 36.892 110.419 C 36.877 110.235 36.869 110.05 36.869 109.864 C 36.869 102.042 50.238 95.701 66.729 95.701 C 83.22 95.701 96.589 102.042 96.589 109.864 Z M 69.086 109.467 C 69.118 109.304 69.135 109.135 69.135 108.962 C 69.135 107.52 67.967 106.352 66.525 106.352 C 65.084 106.352 63.916 107.52 63.916 108.962 C 63.916 109.144 63.935 109.322 63.971 109.494 L 63.971 121.025 L 54.115 121.025 C 54.028 121.017 53.938 121.013 53.849 121.013 C 52.237 121.013 50.93 122.32 50.93 123.932 C 50.93 125.507 52.179 126.792 53.74 126.849 L 53.74 126.852 L 63.557 126.852 L 63.557 151.535 C 63.517 151.728 63.497 151.927 63.497 152.131 C 63.497 153.771 64.827 155.101 66.466 155.101 C 68.106 155.101 69.436 153.771 69.436 152.131 C 69.436 151.982 69.425 151.836 69.404 151.693 L 69.404 126.852 L 79.316 126.852 L 79.316 126.756 C 79.384 126.761 79.454 126.764 79.524 126.764 C 81.136 126.764 82.443 125.457 82.443 123.845 C 82.443 122.233 81.136 120.926 79.524 120.926 C 79.261 120.926 79.007 120.961 78.765 121.025 L 69.086 121.025 Z" style="stroke: rgb(0, 0, 0);" transform="matrix(0.9999999999999999, 0, 0, 0.9999999999999999, 0, 0)"/>
  <path d="M 34.291 178.626 C 31.564 178.626 29.354 176.449 29.354 173.763 C 29.354 171.077 31.564 168.9 34.291 168.9 C 34.738 168.9 35.171 168.959 35.583 169.068 L 35.583 169.016 L 97.299 169.016 L 97.299 169.2 C 97.724 169.083 98.173 169.02 98.636 169.02 C 101.363 169.02 103.573 171.197 103.573 173.883 C 103.573 176.569 101.363 178.746 98.636 178.746 C 98.173 178.746 97.724 178.683 97.299 178.566 L 97.299 178.713 L 35.583 178.713 L 35.583 178.458 C 35.171 178.567 34.738 178.626 34.291 178.626 Z" style="stroke: rgb(0, 0, 0); stroke-width: 0px;" transform="matrix(0.9999999999999999, 0, 0, 0.9999999999999999, 0, 0)"/>
</svg>