<svg viewBox="33.665 237.876 74.219 82.516" xmlns="http://www.w3.org/2000/svg">
  <path d="M 38.602 320.272 C 35.875 320.272 33.665 318.095 33.665 315.409 C 33.665 312.723 35.875 310.546 38.602 310.546 C 39.049 310.546 39.482 310.605 39.894 310.714 L 39.894 310.662 L 101.61 310.662 L 101.61 310.846 C 102.035 310.729 102.484 310.666 102.947 310.666 C 105.674 310.666 107.884 312.843 107.884 315.529 C 107.884 318.215 105.674 320.392 102.947 320.392 C 102.484 320.392 102.035 320.329 101.61 320.212 L 101.61 320.359 L 39.894 320.359 L 39.894 320.104 C 39.482 320.213 39.049 320.272 38.602 320.272 Z M 73.002 263.886 L 73.036 263.886 L 73.036 263.2 L 82.603 263.2 C 82.845 263.136 83.099 263.101 83.362 263.101 C 84.974 263.101 86.281 264.408 86.281 266.02 C 86.281 266.024 86.281 266.029 86.281 266.033 C 86.332 266.249 86.359 266.474 86.359 266.706 C 86.359 268.318 85.052 269.625 83.44 269.625 C 83.37 269.625 83.3 269.622 83.232 269.617 L 83.232 269.713 L 73.32 269.713 L 73.32 290.968 C 73.33 291.06 73.336 291.154 73.336 291.25 C 73.336 291.347 73.331 291.442 73.32 291.536 L 73.32 294.554 C 73.341 294.697 73.352 294.843 73.352 294.992 C 73.352 296.632 72.022 297.962 70.382 297.962 C 68.743 297.962 67.413 296.632 67.413 294.992 C 67.413 294.99 67.413 294.987 67.413 294.985 C 67.362 294.767 67.335 294.54 67.335 294.306 C 67.335 294.102 67.355 293.903 67.395 293.71 L 67.395 269.713 L 57.656 269.713 L 57.656 269.71 C 56.095 269.653 54.846 268.368 54.846 266.793 C 54.846 266.789 54.846 266.784 54.846 266.78 C 54.795 266.564 54.768 266.339 54.768 266.107 C 54.768 264.495 56.075 263.188 57.687 263.188 C 57.776 263.188 57.866 263.192 57.953 263.2 L 67.809 263.2 L 67.809 251.669 C 67.773 251.497 67.754 251.319 67.754 251.137 C 67.754 249.695 68.922 248.527 70.363 248.527 C 71.805 248.527 72.973 249.695 72.973 251.137 C 72.973 251.153 72.973 251.169 72.973 251.185 C 73.024 251.389 73.051 251.603 73.051 251.823 C 73.051 251.996 73.034 252.165 73.002 252.328 L 73.002 253.728 C 73.051 253.912 73.078 254.107 73.078 254.307 C 73.078 254.455 73.064 254.6 73.036 254.74 L 73.036 263.2 L 73.002 263.2 Z M 100.427 252.039 C 100.427 252.691 100.334 253.333 100.154 253.962 L 100.154 305.316 L 40.506 305.316 L 40.506 252.594 L 40.73 252.594 C 40.715 252.41 40.707 252.225 40.707 252.039 C 40.707 244.217 54.076 237.876 70.567 237.876 C 87.058 237.876 100.427 244.217 100.427 252.039 Z M 71.019 242.959 C 56.907 242.959 45.466 248.385 45.466 255.079 C 45.466 255.238 45.473 255.397 45.486 255.554 L 45.294 255.554 L 45.294 300.672 L 96.339 300.672 L 96.339 256.725 C 96.493 256.187 96.572 255.637 96.572 255.079 C 96.572 248.385 85.132 242.959 71.019 242.959 Z" style="stroke: rgb(0, 0, 0); stroke-width: 0px;"/>
</svg>